<svg xmlns="http://www.w3.org/2000/svg" xmlns:xlink="http://www.w3.org/1999/xlink" width="245" zoomAndPan="magnify" viewBox="0 0 183.75 258.749997" height="345" preserveAspectRatio="xMidYMid meet" version="1.0"><defs><g/><clipPath id="fd586e5078"><path d="M 0 0.0507812 L 183.5 0.0507812 L 183.5 258.449219 L 0 258.449219 Z M 0 0.0507812 " clip-rule="nonzero"/></clipPath><clipPath id="0932c50e21"><path d="M 50.386719 70.0625 L 183.5 70.0625 L 183.5 251.96875 L 50.386719 251.96875 Z M 50.386719 70.0625 " clip-rule="nonzero"/></clipPath><clipPath id="af76e3a5e0"><path d="M 98 110 L 183.5 110 L 183.5 253 L 98 253 Z M 98 110 " clip-rule="nonzero"/></clipPath><clipPath id="e43c80f842"><path d="M 89 106 L 183.5 106 L 183.5 233 L 89 233 Z M 89 106 " clip-rule="nonzero"/></clipPath></defs><g clip-path="url(#fd586e5078)"><path fill="#ffffff" d="M 0 0.0507812 L 183.75 0.0507812 L 183.75 258.800781 L 0 258.800781 Z M 0 0.0507812 " fill-opacity="1" fill-rule="nonzero"/><path fill="#166ab8" d="M 0 0.0507812 L 183.75 0.0507812 L 183.75 258.800781 L 0 258.800781 Z M 0 0.0507812 " fill-opacity="1" fill-rule="nonzero"/></g><g clip-path="url(#0932c50e21)"><path fill="#ff3c51" d="M 239.925781 129.90625 C 237.792969 130.617188 226.984375 131.609375 226.984375 131.609375 C 228.347656 131.839844 238.015625 136.050781 238.015625 136.050781 C 241.007812 139.429688 236.066406 139.699219 236.066406 139.699219 C 235.441406 139.457031 226.339844 133.894531 226.339844 133.894531 C 225.570312 136.730469 221.953125 138.421875 221.953125 138.421875 C 221.089844 142.375 225.371094 153.679688 225.371094 153.679688 C 225.898438 153.09375 226.636719 152.09375 226.636719 152.09375 C 227.3125 154.277344 227.453125 158.09375 227.453125 158.09375 C 227.042969 164.601562 220.394531 164.210938 220.394531 164.210938 C 215.730469 163.609375 211.335938 165.703125 211.335938 165.703125 C 209.46875 164.582031 201.753906 163.804688 196.21875 163.375 C 197.878906 168.46875 200.210938 175.789062 200.667969 178.140625 C 201.402344 181.875 206.042969 191.234375 202.695312 200.199219 C 199.355469 209.164062 193.195312 210.832031 188.660156 212.019531 C 186.714844 212.527344 184.082031 213.351562 181.109375 214.074219 L 180.949219 214.527344 C 177.035156 224.664062 177.855469 239.359375 177.855469 239.359375 C 177.753906 244.289062 178.925781 244.726562 178.925781 244.726562 C 182.363281 245.605469 183.824219 246.96875 184.425781 248.132812 C 184.726562 248.242188 185.003906 248.378906 185.199219 248.484375 C 186.265625 249.070312 185.167969 250.804688 184.71875 250.359375 C 183.6875 250.523438 174.808594 251.894531 173.941406 251.550781 C 166.902344 251.902344 165.84375 250.726562 165.84375 250.726562 C 162.503906 249.726562 163.238281 232.089844 163.238281 232.089844 C 163.09375 229.484375 164.324219 221.871094 165.480469 215.445312 L 159.511719 215.398438 L 142.953125 213.921875 L 126.382812 212.570312 L 117.863281 211.179688 C 117.777344 211.257812 117.75 211.289062 117.671875 211.367188 C 118.816406 217.746094 120.019531 225.226562 119.875 227.800781 C 119.875 227.800781 120.609375 245.441406 117.273438 246.441406 C 117.273438 246.441406 113.765625 247.882812 110.347656 247.980469 C 108.039062 248.046875 100.539062 247.648438 97.714844 246.480469 C 96.542969 246 97.597656 244.375 97.914062 244.199219 C 98.109375 244.09375 98.386719 243.957031 98.6875 243.847656 C 99.289062 242.683594 100.75 241.316406 104.1875 240.441406 C 104.1875 240.441406 105.359375 240.003906 105.257812 235.070312 C 105.257812 235.070312 106.082031 220.378906 102.164062 210.242188 L 100.695312 205.996094 C 98.148438 204.917969 95.984375 203.917969 94.578125 203.28125 C 90.304688 201.339844 84.519531 198.65625 82.746094 189.253906 C 80.972656 179.851562 87.132812 171.414062 88.488281 167.859375 C 88.804688 167.023438 89.496094 165.550781 90.371094 163.789062 C 85.863281 164.238281 81.324219 164.878906 79.945312 165.703125 C 79.945312 165.703125 75.554688 163.609375 70.882812 164.210938 C 70.882812 164.210938 64.242188 164.601562 63.828125 158.09375 C 63.828125 158.09375 63.96875 154.277344 64.644531 152.09375 C 64.644531 152.09375 65.386719 153.09375 65.90625 153.679688 C 65.90625 153.679688 70.191406 142.375 69.328125 138.421875 C 69.328125 138.421875 65.714844 136.730469 64.941406 133.894531 C 64.941406 133.894531 55.839844 139.457031 55.214844 139.699219 C 55.214844 139.699219 50.273438 139.429688 53.265625 136.050781 C 53.265625 136.050781 62.9375 131.839844 64.296875 131.609375 C 64.296875 131.609375 53.492188 130.617188 51.359375 129.90625 C 51.359375 129.90625 48.78125 128.171875 52.023438 126.292969 C 52.023438 126.292969 63.429688 127.28125 66.027344 127.898438 C 66.027344 127.898438 64.777344 125.238281 61.882812 124.527344 C 61.882812 124.527344 59.527344 123.824219 58.589844 122.15625 C 58.589844 122.15625 58.167969 118.621094 62.519531 120.441406 C 62.519531 120.441406 66.09375 121.585938 67.875 125.429688 C 67.875 125.429688 70.925781 129.523438 71.914062 129.628906 C 71.914062 129.628906 77.25 125.523438 78.875 127.578125 C 78.875 127.578125 78.453125 129.847656 73.195312 131.242188 C 73.195312 131.242188 74.480469 134.21875 72.101562 136.523438 C 72.101562 136.523438 73.460938 147.152344 72.792969 153.691406 C 72.792969 153.691406 86.859375 152.5625 88.421875 152.078125 C 88.421875 152.078125 87.890625 151.421875 86.933594 151.144531 C 86.933594 151.144531 91.867188 151.183594 97.355469 151.363281 L 97.902344 150.410156 L 102.152344 142.039062 C 103.261719 139.421875 112.132812 124.757812 114.113281 121.488281 C 114.179688 121.507812 114.21875 121.519531 114.21875 121.519531 L 131.351562 94.660156 C 133.734375 90.925781 136.851562 87.707031 140.511719 85.207031 L 143.367188 83.253906 C 141.429688 82.835938 139.035156 81.042969 138.265625 78.878906 C 137.496094 76.714844 137.769531 75.78125 140.535156 76.148438 C 143.304688 76.511719 147.523438 81.511719 147.523438 81.511719 C 147.523438 81.511719 145.664062 77.984375 145.015625 74.367188 C 144.371094 70.753906 145.882812 70.183594 145.882812 70.183594 C 145.882812 70.183594 149.425781 68.957031 148.90625 74.285156 C 148.386719 79.613281 148.832031 79.96875 149.273438 81.5 C 149.71875 83.03125 151.617188 77.15625 153.335938 77.90625 C 155.050781 78.65625 153.957031 81.457031 152.382812 82.71875 C 152.382812 82.71875 153.804688 82.109375 156.332031 83.789062 C 161.824219 87.640625 166.425781 92.628906 169.792969 98.425781 C 174.125 105.878906 179.882812 116.839844 183.132812 127.300781 L 183.179688 127.398438 C 183.179688 127.398438 190.851562 147.265625 191.585938 150.382812 C 191.648438 150.648438 191.78125 150.871094 191.96875 151.066406 L 191.800781 151.441406 C 198.070312 151.195312 204.351562 151.144531 204.351562 151.144531 C 203.394531 151.421875 202.859375 152.078125 202.859375 152.078125 C 204.421875 152.5625 218.488281 153.691406 218.488281 153.691406 C 217.820312 147.152344 219.183594 136.523438 219.183594 136.523438 C 216.804688 134.21875 218.089844 131.242188 218.089844 131.242188 C 212.832031 129.847656 212.40625 127.578125 212.40625 127.578125 C 214.035156 125.523438 219.367188 129.628906 219.367188 129.628906 C 220.355469 129.523438 223.410156 125.429688 223.410156 125.429688 C 225.191406 121.585938 228.765625 120.441406 228.765625 120.441406 C 233.117188 118.621094 232.691406 122.15625 232.691406 122.15625 C 231.757812 123.824219 229.398438 124.527344 229.398438 124.527344 C 226.507812 125.238281 225.253906 127.898438 225.253906 127.898438 C 227.851562 127.28125 239.257812 126.292969 239.257812 126.292969 C 242.503906 128.171875 239.925781 129.90625 239.925781 129.90625 " fill-opacity="1" fill-rule="nonzero"/></g><path fill="#000000" d="M 169.621094 163.273438 C 155.75 162.882812 124.394531 159.234375 115.246094 158.144531 C 113.78125 157.972656 112.496094 159.089844 112.472656 160.558594 C 112.46875 160.882812 112.46875 161.230469 112.480469 161.597656 C 112.515625 162.875 112.65625 164.394531 113.007812 166.0625 C 113.304688 167.878906 113.777344 169.859375 114.53125 171.851562 C 115.902344 175.484375 118.199219 179.152344 122.007812 181.957031 C 122.75 182.507812 123.554688 183.023438 124.421875 183.496094 C 125.976562 184.351562 127.722656 185.078125 129.699219 185.636719 C 129.699219 185.636719 129.910156 185.703125 130.289062 185.8125 C 133.070312 186.597656 145.277344 189.671875 156.332031 186.476562 C 156.46875 186.441406 156.597656 186.410156 156.730469 186.367188 C 156.730469 186.367188 160.3125 185.402344 164.027344 182.191406 C 164.195312 182.042969 164.363281 181.898438 164.535156 181.742188 C 165.792969 180.589844 167.046875 179.164062 168.167969 177.429688 C 169.875 174.789062 171.265625 171.417969 171.867188 167.148438 C 171.921875 166.761719 171.976562 166.378906 172.019531 165.980469 C 172.167969 164.558594 171.050781 163.3125 169.621094 163.273438 Z M 139.402344 127.5 C 139.402344 125.472656 140.179688 123.546875 141.578125 122.082031 C 141.726562 121.925781 141.933594 121.84375 142.144531 121.84375 C 142.191406 121.84375 142.238281 121.847656 142.292969 121.855469 C 142.550781 121.90625 142.765625 122.082031 142.867188 122.328125 C 143.246094 123.257812 144.132812 123.855469 145.128906 123.855469 C 146.472656 123.855469 147.570312 122.753906 147.570312 121.402344 C 147.570312 121.179688 147.539062 120.957031 147.476562 120.734375 C 147.402344 120.480469 147.464844 120.207031 147.640625 120.007812 C 147.789062 119.839844 148.007812 119.746094 148.230469 119.746094 C 148.265625 119.746094 148.300781 119.746094 148.339844 119.753906 C 148.628906 119.792969 148.886719 119.84375 149.128906 119.90625 C 151.804688 120.585938 153.941406 122.667969 154.703125 125.335938 C 154.910156 126.046875 155.015625 126.777344 155.015625 127.5 C 155.015625 131.820312 151.511719 135.332031 147.210938 135.332031 C 142.90625 135.332031 139.402344 131.820312 139.402344 127.5 " fill-opacity="1" fill-rule="nonzero"/><path fill="#ffa4cb" d="M 163.765625 180.90625 C 161.40625 178.699219 157.472656 180.003906 156.953125 183.296875 C 156.816406 184.164062 156.660156 184.984375 156.496094 185.746094 C 156.445312 186 156.390625 186.242188 156.332031 186.476562 C 145.277344 189.671875 133.070312 186.597656 130.289062 185.8125 C 130.292969 185.722656 130.292969 185.632812 130.296875 185.546875 C 130.3125 184.757812 130.332031 183.960938 130.347656 183.175781 C 130.414062 180.277344 127.652344 178.496094 125.246094 179.117188 C 126.308594 177.539062 127.902344 176.433594 129.953125 175.898438 C 132.207031 175.3125 133.863281 175.839844 135.953125 176.441406 C 141.78125 178.105469 146.011719 178.03125 151.882812 176.679688 C 156.191406 175.6875 162.382812 176.878906 163.765625 180.90625 " fill-opacity="1" fill-rule="nonzero"/><g clip-path="url(#af76e3a5e0)"><path fill="#ffffff" d="M 183.402344 248.589844 C 182.582031 247.457031 181.664062 246.425781 180.320312 245.933594 C 178.773438 245.359375 178.050781 247.898438 179.632812 248.421875 C 180.492188 248.703125 181.367188 249.515625 182.019531 250.125 C 182.78125 250.832031 183.214844 251.667969 183.851562 252.46875 C 184.269531 253 185.074219 252.523438 185.101562 251.949219 C 185.152344 250.789062 184.050781 249.476562 183.402344 248.589844 Z M 177.253906 249.738281 C 176.917969 249.183594 176.710938 248.5625 176.382812 248 C 175.90625 247.171875 175.144531 246.53125 174.261719 246.175781 C 174.1875 246.132812 174.113281 246.105469 174.035156 246.085938 C 174.03125 246.082031 174.027344 246.082031 174.023438 246.082031 C 173.015625 245.851562 171.855469 247.25 172.871094 248.054688 C 173.523438 248.578125 174.207031 248.90625 174.789062 249.523438 C 175.609375 250.398438 176.238281 251.480469 177.101562 252.300781 C 177.597656 252.773438 178.394531 252.300781 178.238281 251.636719 C 178.066406 250.921875 177.625 250.359375 177.253906 249.738281 Z M 102.367188 242.613281 C 100.746094 243.652344 99.300781 245.101562 98.949219 247.042969 C 98.785156 247.960938 99.976562 248.261719 100.328125 247.421875 C 100.9375 245.960938 102.230469 245.304688 103.546875 244.628906 C 104.886719 243.945312 103.644531 241.796875 102.367188 242.613281 Z M 125.246094 179.117188 C 124.515625 179.308594 123.816406 179.714844 123.242188 180.390625 C 123.222656 180.40625 123.203125 180.425781 123.191406 180.449219 C 122.738281 180.980469 122.34375 181.488281 122.007812 181.957031 C 122.75 182.507812 123.554688 183.023438 124.421875 183.496094 C 125.976562 184.351562 127.722656 185.078125 129.699219 185.636719 C 129.699219 185.636719 129.910156 185.703125 130.289062 185.8125 C 130.292969 185.722656 130.292969 185.632812 130.296875 185.546875 C 130.3125 184.757812 130.332031 183.960938 130.347656 183.175781 C 130.414062 180.277344 127.652344 178.496094 125.246094 179.117188 Z M 154.234375 127.5 C 154.234375 126.820312 154.132812 126.171875 153.957031 125.550781 C 153.273438 123.152344 151.355469 121.277344 148.9375 120.664062 C 148.703125 120.605469 148.46875 120.5625 148.230469 120.523438 C 148.304688 120.800781 148.351562 121.09375 148.351562 121.402344 C 148.351562 123.1875 146.910156 124.632812 145.128906 124.632812 C 143.78125 124.632812 142.625 123.800781 142.144531 122.621094 C 140.933594 123.886719 140.183594 125.605469 140.183594 127.5 C 140.183594 131.394531 143.328125 134.550781 147.210938 134.550781 C 151.089844 134.550781 154.234375 131.394531 154.234375 127.5 Z M 160.554688 125.546875 C 160.554688 134.097656 154.582031 141.03125 147.210938 141.03125 C 139.835938 141.03125 133.863281 134.097656 133.863281 125.546875 C 133.863281 116.996094 140.378906 110.0625 147.210938 110.0625 C 154.582031 110.0625 160.554688 116.996094 160.554688 125.546875 Z M 166.597656 172.414062 C 167.375 174.378906 167.863281 176.042969 168.167969 177.429688 C 169.875 174.789062 171.265625 171.417969 171.867188 167.148438 C 168.570312 165.871094 165.296875 169.113281 166.597656 172.414062 Z M 163.765625 180.90625 C 161.40625 178.699219 157.472656 180.003906 156.953125 183.296875 C 156.816406 184.164062 156.660156 184.984375 156.496094 185.746094 C 156.445312 186 156.390625 186.242188 156.332031 186.476562 C 156.46875 186.441406 156.597656 186.410156 156.730469 186.367188 C 156.730469 186.367188 160.3125 185.402344 164.027344 182.191406 C 164.195312 182.042969 164.363281 181.898438 164.535156 181.742188 C 164.363281 181.554688 164.191406 181.359375 164.019531 181.171875 C 163.9375 181.078125 163.851562 180.992188 163.765625 180.90625 Z M 112.480469 161.597656 C 112.515625 162.875 112.65625 164.394531 113.007812 166.0625 C 113.304688 167.878906 113.777344 169.859375 114.53125 171.851562 C 115.109375 170.332031 115.773438 168.867188 116.449219 167.53125 C 117.984375 164.480469 115.421875 161.328125 112.480469 161.597656 Z M 107.070312 246.3125 C 105.847656 246.570312 104.328125 247.382812 104.328125 248.792969 C 104.328125 249.566406 103.179688 249.722656 102.984375 248.972656 C 102.6875 247.851562 103.332031 247.019531 103.84375 246.082031 C 104.410156 245.050781 105.246094 244.222656 106.398438 243.898438 C 107.96875 243.460938 108.636719 245.984375 107.070312 246.3125 " fill-opacity="1" fill-rule="nonzero"/></g><g clip-path="url(#e43c80f842)"><path fill="#ffffff" d="M 189.957031 176.390625 C 189.449219 175.855469 188.914062 175.347656 188.394531 174.828125 C 187.84375 174.277344 186.988281 175.128906 187.539062 175.679688 C 188.058594 176.203125 188.566406 176.734375 189.101562 177.242188 C 189.664062 177.777344 190.492188 176.953125 189.957031 176.390625 Z M 187.300781 177.683594 C 186.871094 176.613281 186.164062 175.699219 185.683594 174.652344 C 185.367188 173.976562 184.167969 174.464844 184.453125 175.171875 C 184.886719 176.238281 185.449219 177.238281 186.09375 178.191406 C 186.488281 178.761719 187.59375 178.417969 187.300781 177.683594 Z M 152.871094 191.203125 C 150.757812 191.730469 148.785156 192.472656 146.582031 192.617188 C 144.390625 192.765625 142.214844 192.414062 140.121094 191.746094 C 137.972656 191.058594 135.863281 190.324219 133.648438 189.84375 C 130.964844 189.257812 128.515625 188.703125 126.039062 187.453125 C 125.308594 187.082031 124.664062 188.160156 125.390625 188.554688 C 127.75 189.832031 130.230469 190.945312 132.738281 191.894531 C 135.234375 192.839844 137.96875 193.863281 140.582031 194.410156 C 144.582031 195.246094 150.261719 195.09375 153.582031 192.421875 C 154.179688 191.9375 153.523438 191.042969 152.871094 191.203125 Z M 118.0625 194.394531 C 117.953125 193.839844 117.132812 194.078125 117.21875 194.628906 C 117.390625 195.664062 117.726562 196.832031 118.378906 197.671875 C 118.644531 198.019531 119.226562 197.644531 119.097656 197.257812 C 118.777344 196.277344 118.265625 195.421875 118.0625 194.394531 Z M 116.753906 195.878906 C 116.566406 195.476562 116.410156 195.066406 116.277344 194.640625 C 116.09375 194.066406 115.183594 194.308594 115.363281 194.894531 C 115.617188 195.730469 115.9375 196.773438 116.554688 197.417969 C 116.851562 197.726562 117.410156 197.410156 117.28125 196.996094 C 117.15625 196.601562 116.929688 196.253906 116.753906 195.878906 Z M 110.710938 225.277344 C 110.445312 224.929688 110.210938 224.5625 109.96875 224.199219 C 109.632812 223.695312 108.921875 224.125 109.167969 224.664062 C 109.546875 225.5 110.160156 226.359375 110.90625 226.894531 C 111.265625 227.15625 111.757812 226.648438 111.515625 226.289062 C 111.269531 225.933594 110.976562 225.617188 110.710938 225.277344 Z M 107.789062 224.125 C 107.46875 223.765625 106.839844 224.242188 107.113281 224.648438 C 107.933594 225.871094 108.621094 227.445312 109.789062 228.371094 C 110.136719 228.648438 110.734375 228.296875 110.449219 227.863281 C 109.644531 226.601562 108.777344 225.257812 107.789062 224.125 Z M 168.886719 229.117188 C 168.953125 228.613281 168.082031 228.492188 167.992188 228.996094 C 167.796875 230.175781 167.890625 231.5625 168.648438 232.542969 C 168.921875 232.894531 169.480469 232.511719 169.367188 232.121094 C 169.0625 231.089844 168.742188 230.21875 168.886719 229.117188 Z M 167.058594 228.457031 C 167.242188 227.878906 166.355469 227.648438 166.15625 228.210938 C 165.703125 229.507812 165.636719 231.046875 166.496094 232.195312 C 166.761719 232.546875 167.492188 232.355469 167.285156 231.863281 C 166.8125 230.71875 166.6875 229.65625 167.058594 228.457031 Z M 187.519531 198.152344 C 187.582031 199.007812 187.4375 199.800781 187.28125 200.636719 C 187.191406 201.097656 187.84375 201.449219 188.089844 200.976562 C 188.558594 200.066406 188.546875 199.023438 188.398438 198.03125 C 188.324219 197.535156 187.476562 197.648438 187.519531 198.152344 Z M 184.65625 197.632812 C 184.636719 198.835938 184.527344 200.078125 184.671875 201.273438 C 184.738281 201.824219 185.460938 201.824219 185.53125 201.273438 C 185.675781 200.078125 185.566406 198.835938 185.546875 197.632812 C 185.539062 197.054688 184.660156 197.054688 184.65625 197.632812 Z M 179.726562 137.691406 C 179.234375 137.289062 178.542969 137.953125 179.015625 138.402344 C 179.457031 138.808594 179.425781 139.304688 179.441406 139.867188 C 179.449219 140.277344 180.09375 140.535156 180.28125 140.09375 C 180.636719 139.265625 180.429688 138.277344 179.726562 137.691406 Z M 176.296875 137.65625 C 176.476562 138.632812 176.742188 139.707031 177.171875 140.605469 C 177.363281 140.992188 178 140.804688 177.980469 140.386719 C 177.933594 139.371094 177.433594 138.394531 177.238281 137.394531 C 177.113281 136.777344 176.183594 137.042969 176.296875 137.65625 Z M 117.34375 133.222656 C 117.832031 132.984375 117.453125 132.355469 117.003906 132.417969 C 115.851562 132.574219 114.917969 133.449219 114.335938 134.40625 C 113.984375 134.972656 114.871094 135.484375 115.222656 134.921875 C 115.742188 134.089844 116.480469 133.640625 117.34375 133.222656 Z M 115.699219 130.066406 C 113.675781 130.441406 111.871094 132.605469 111.417969 134.527344 C 111.265625 135.167969 112.246094 135.441406 112.40625 134.800781 C 112.640625 133.863281 113.136719 133.082031 113.828125 132.417969 C 114.5 131.773438 115.308594 131.425781 116.050781 130.894531 C 116.464844 130.589844 116.21875 129.964844 115.699219 130.066406 Z M 92.929688 187.539062 C 92.667969 187.066406 92.488281 186.566406 92.285156 186.066406 C 92.078125 185.527344 91.328125 185.730469 91.425781 186.300781 C 91.621094 187.449219 92.21875 188.75 93.191406 189.433594 C 93.558594 189.695312 94.054688 189.183594 93.8125 188.816406 C 93.519531 188.382812 93.183594 187.996094 92.929688 187.539062 Z M 90.523438 187.585938 C 90.40625 186.828125 90.328125 186.082031 89.957031 185.402344 C 89.628906 184.808594 88.8125 185.332031 89.066406 185.921875 C 89.6875 187.351562 89.171875 189.664062 90.84375 190.476562 C 91.210938 190.652344 91.761719 190.253906 91.46875 189.855469 C 90.925781 189.125 90.660156 188.484375 90.523438 187.585938 Z M 177.082031 153.855469 C 176.179688 154.832031 175.34375 156.003906 174.308594 156.835938 C 173.140625 157.769531 171.8125 157.859375 170.367188 157.632812 C 167.492188 157.179688 165.527344 155.460938 163.25 153.820312 C 162.203125 153.0625 161.101562 152.382812 159.90625 151.882812 C 158.449219 151.277344 157.046875 150.375 155.476562 150.09375 C 153.640625 149.761719 151.472656 150.515625 149.746094 151.128906 C 148.382812 151.617188 148.703125 153.957031 150.183594 153.988281 C 151.296875 154.007812 152.363281 153.59375 153.445312 153.351562 C 154.785156 153.054688 155.921875 153.421875 157.28125 153.476562 C 160.5 153.601562 162.714844 156.097656 165.277344 157.707031 C 167.597656 159.167969 170.246094 159.90625 172.910156 158.898438 C 175.195312 158.039062 176.351562 156.109375 177.433594 154.054688 C 177.554688 153.832031 177.226562 153.703125 177.082031 153.855469 Z M 128.75 153.527344 C 131.605469 152.535156 134.332031 150.613281 137.492188 151.210938 C 138.832031 151.464844 140.019531 151.363281 141.261719 151.960938 C 142.257812 152.4375 143.207031 153.085938 144.296875 153.316406 C 145.742188 153.617188 146.582031 151.40625 145.367188 150.628906 C 143.824219 149.640625 141.882812 148.417969 140.015625 148.320312 C 138.421875 148.246094 136.859375 148.804688 135.300781 149.070312 C 134.023438 149.285156 132.796875 149.699219 131.605469 150.199219 C 129.011719 151.289062 126.710938 152.515625 123.804688 152.304688 C 122.347656 152.199219 121.078125 151.816406 120.152344 150.636719 C 119.324219 149.59375 118.78125 148.261719 118.121094 147.109375 C 118.019531 146.925781 117.667969 146.980469 117.730469 147.226562 C 118.324219 149.472656 119.015625 151.609375 121.046875 152.964844 C 123.414062 154.546875 126.160156 154.425781 128.75 153.527344 Z M 138.582031 141.695312 C 143.152344 146.050781 150.1875 146.417969 155.28125 142.691406 C 156.140625 142.0625 157.0625 141.316406 158.023438 140.429688 C 158.425781 140.0625 157.96875 139.421875 157.488281 139.679688 C 154.835938 141.09375 150.976562 142.828125 148.148438 142.734375 C 148.148438 142.734375 145.46875 143.164062 140.460938 141.054688 C 140.460938 141.054688 138.714844 139.878906 137.003906 138.507812 C 136.578125 138.164062 136.007812 138.707031 136.339844 139.148438 C 136.933594 139.949219 137.679688 140.832031 138.582031 141.695312 Z M 137.796875 111.054688 C 140.203125 108.566406 143.691406 105.941406 147.523438 106.292969 C 147.523438 106.292969 154.695312 106.707031 158.976562 113.164062 C 159.40625 113.816406 158.566406 114.550781 157.984375 114.027344 C 155.84375 112.078125 152.667969 109.785156 148.984375 109.011719 C 148.984375 109.011719 144.472656 107.953125 141.347656 110.0625 C 141.347656 110.0625 140.117188 110.96875 138.675781 112.042969 C 138.023438 112.523438 137.234375 111.636719 137.796875 111.054688 " fill-opacity="1" fill-rule="nonzero"/></g><g fill="#ffdf2b" fill-opacity="1"><g transform="translate(22.557125, 39.190264)"><g><path d="M 14.109375 -15.171875 L 10.921875 -0.046875 L 6.46875 0.046875 L 7.5625 -5.28125 L 4.125 -5.0625 L 2.625 -0.0625 L -1.53125 0.015625 L 2.75 -15.671875 L 3.828125 -16.6875 L 13.234375 -17.09375 Z M 8.296875 -8.53125 L 9.171875 -12.796875 L 6.296875 -12.5625 L 5.1875 -8.75 Z M 8.296875 -8.53125 "/></g></g></g><g fill="#ffdf2b" fill-opacity="1"><g transform="translate(35.864856, 39.190264)"><g/></g></g><g fill="#ffdf2b" fill-opacity="1"><g transform="translate(42.283372, 39.190264)"><g><path d="M 9.765625 -4.046875 L 9.328125 0.015625 L -1.546875 0.015625 L 2.578125 -17.15625 L 7.09375 -16.875 L 3.90625 -4.109375 Z M 9.765625 -4.046875 "/></g></g></g><g fill="#ffdf2b" fill-opacity="1"><g transform="translate(54.007869, 39.190264)"><g><path d="M 7.796875 -3.828125 L 11.65625 -3.578125 L 11.5 -2.03125 L 9.96875 -0.15625 L 0.5 -0.015625 L -0.71875 -0.859375 L 1.578125 -11.140625 L 3.21875 -12.53125 L 12.421875 -12.34375 L 13.796875 -11.25 L 12.03125 -5.375 L 10.578125 -4.515625 L 4.65625 -4.6875 L 4.25 -3.25 L 7.25 -3.0625 Z M 8.203125 -6.859375 L 8.59375 -9.03125 L 5.53125 -9.15625 L 5.078125 -7.140625 Z M 8.203125 -6.859375 "/></g></g></g><g fill="#ffdf2b" fill-opacity="1"><g transform="translate(67.058852, 39.190264)"><g><path d="M 13.015625 -12.53125 L 13.6875 -11.703125 L 11.078125 -0.59375 L 9.859375 -0.015625 L 6.515625 -0.078125 L 8.5 -8.6875 L 5.484375 -8.59375 L 3.65625 -0.34375 L -0.921875 -0.046875 L 1.828125 -12.28125 L 4.578125 -12.34375 L 4.828125 -11.703125 L 5.46875 -12.21875 Z M 13.015625 -12.53125 "/></g></g></g><g fill="#ffdf2b" fill-opacity="1"><g transform="translate(79.895885, 39.190264)"><g><path d="M 14.609375 -17.109375 L 10.796875 -0.015625 L 8.078125 0 L 7.765625 -0.6875 L 7.09375 -0.078125 L 0.265625 0 L -0.875 -1.671875 L 0.984375 -10.84375 L 2.6875 -12.515625 L 8.953125 -12.015625 L 10.21875 -16.875 Z M 7.015625 -3.65625 L 8.0625 -8.359375 L 5.234375 -8.46875 L 3.890625 -3.75 Z M 7.015625 -3.65625 "/></g></g></g><g fill="#ffdf2b" fill-opacity="1"><g transform="translate(93.075243, 39.190264)"><g><path d="M 13.796875 -11.640625 L 11.25 0 L 8.3125 0.015625 L 8.03125 -0.734375 L 7.375 0 L 0.640625 -0.0625 L -0.71875 -1.234375 L 0.953125 -6.796875 L 2.40625 -7.65625 L 8.421875 -7.765625 L 8.8125 -9.21875 L 5.828125 -9.4375 L 5.28125 -8.640625 L 1.421875 -8.90625 L 1.578125 -10.4375 L 3.125 -12.328125 L 12.546875 -12.453125 Z M 7.546875 -3.34375 L 7.96875 -5.3125 L 4.78125 -5.265625 L 4.484375 -3.46875 Z M 7.546875 -3.34375 "/></g></g></g><g fill="#ffdf2b" fill-opacity="1"><g transform="translate(22.557125, 58.64025)"><g><path d="M 14.609375 -17.109375 L 10.796875 -0.015625 L 8.078125 0 L 7.765625 -0.6875 L 7.09375 -0.078125 L 0.265625 0 L -0.875 -1.671875 L 0.984375 -10.84375 L 2.6875 -12.515625 L 8.953125 -12.015625 L 10.21875 -16.875 Z M 7.015625 -3.65625 L 8.0625 -8.359375 L 5.234375 -8.46875 L 3.890625 -3.75 Z M 7.015625 -3.65625 "/></g></g></g><g fill="#ffdf2b" fill-opacity="1"><g transform="translate(35.736482, 58.64025)"><g><path d="M 12.78125 -12.34375 L 13.578125 -10.953125 L 11.328125 -1.609375 L 10.140625 -0.078125 L 0.53125 -0.015625 L -0.71875 -0.765625 L 1.5625 -11.109375 L 2.75 -12.53125 Z M 8.59375 -8.96875 L 5.625 -9.09375 L 4.40625 -3.421875 L 7.203125 -3.1875 Z M 8.59375 -8.96875 "/></g></g></g><g fill="#ffdf2b" fill-opacity="1"><g transform="translate(48.659092, 58.64025)"><g/></g></g><g fill="#ffdf2b" fill-opacity="1"><g transform="translate(55.077609, 58.64025)"><g><path d="M 16.53125 -17 L 12.8125 -0.046875 L 8.34375 -0.15625 L 10.21875 -9.8125 L 7.03125 -6.265625 L 5.59375 -9.6875 L 3.046875 -0.21875 L -1.53125 -0.046875 L 2.640625 -17.15625 L 7.15625 -17.09375 L 8.640625 -13.234375 L 11.796875 -17.0625 Z M 16.53125 -17 "/></g></g></g><g fill="#ffdf2b" fill-opacity="1"><g transform="translate(70.268103, 58.64025)"><g><path d="M 12.78125 -12.34375 L 13.578125 -10.953125 L 11.328125 -1.609375 L 10.140625 -0.078125 L 0.53125 -0.015625 L -0.71875 -0.765625 L 1.5625 -11.109375 L 2.75 -12.53125 Z M 8.59375 -8.96875 L 5.625 -9.09375 L 4.40625 -3.421875 L 7.203125 -3.1875 Z M 8.59375 -8.96875 "/></g></g></g><g fill="#ffdf2b" fill-opacity="1"><g transform="translate(83.190714, 58.64025)"><g><path d="M 13.015625 -12.53125 L 13.6875 -11.703125 L 11.078125 -0.59375 L 9.859375 -0.015625 L 6.515625 -0.078125 L 8.5 -8.6875 L 5.484375 -8.59375 L 3.65625 -0.34375 L -0.921875 -0.046875 L 1.828125 -12.28125 L 4.578125 -12.34375 L 4.828125 -11.703125 L 5.46875 -12.21875 Z M 13.015625 -12.53125 "/></g></g></g><g fill="#ffdf2b" fill-opacity="1"><g transform="translate(96.027747, 58.64025)"><g><path d="M 11.6875 -7.359375 L 12.203125 -5.5 L 10.984375 -1 L 9.578125 -0.109375 L 9.453125 -0.109375 L -0.109375 0 L -0.78125 -0.984375 L 0.34375 -4.484375 L 3.90625 -4.46875 L 3.953125 -3.375 L 7.390625 -3.375 L 7.84375 -4.984375 L 1.40625 -5.546875 L 0.59375 -6.359375 L 1.875 -11.46875 L 2.953125 -12.234375 L 11.96875 -12.515625 L 13.40625 -11.953125 L 12.890625 -8.96875 L 11.953125 -8.359375 L 8.984375 -8.25 L 8.75 -9.4375 L 5.765625 -9.3125 L 5.21875 -7.890625 Z M 11.6875 -7.359375 "/></g></g></g><g fill="#ffdf2b" fill-opacity="1"><g transform="translate(108.821998, 58.64025)"><g><path d="M 10.875 -4.421875 L 10.28125 -1.859375 L 8.8125 -0.125 L 0.203125 0 L -0.28125 -1.375 L 1.59375 -9.171875 L 0.828125 -9.375 L 1.40625 -11.890625 L 1.984375 -12.390625 L 2.609375 -12.421875 L 3.5625 -15.515625 L 6.859375 -15.4375 L 7.25 -14.890625 L 6.640625 -12.421875 L 11.265625 -12.328125 L 11.625 -11.578125 L 11.015625 -9.09375 L 10.375 -8.6875 L 5.875 -8.8125 L 4.46875 -3.46875 L 6.46875 -3.375 L 7.421875 -5.375 L 10.515625 -5.171875 Z M 10.875 -4.421875 "/></g></g></g><g fill="#ffdf2b" fill-opacity="1"><g transform="translate(120.888804, 58.64025)"><g><path d="M 12.203125 -12.34375 L 12.984375 -10.890625 L 12.015625 -7.03125 L 11.140625 -5.984375 L 7.796875 -6.046875 L 8.078125 -8.59375 L 5.65625 -8.734375 L 3.65625 -0.046875 L -0.78125 -0.28125 L 1.875 -12.46875 L 4.546875 -12.453125 L 4.78125 -11.75 L 5.421875 -12.328125 Z M 12.203125 -12.34375 "/></g></g></g><g fill="#ffdf2b" fill-opacity="1"><g transform="translate(133.212358, 58.64025)"><g><path d="M 12.78125 -12.34375 L 13.578125 -10.953125 L 11.328125 -1.609375 L 10.140625 -0.078125 L 0.53125 -0.015625 L -0.71875 -0.765625 L 1.5625 -11.109375 L 2.75 -12.53125 Z M 8.59375 -8.96875 L 5.625 -9.09375 L 4.40625 -3.421875 L 7.203125 -3.1875 Z M 8.59375 -8.96875 "/></g></g></g><g fill="#ffdf2b" fill-opacity="1"><g transform="translate(22.557125, 78.090237)"><g><path d="M 11.828125 -17.046875 L 16.25 -16.15625 L 9.34375 -0.9375 L 8.171875 -0.078125 L 3 0.046875 L 2.328125 -0.8125 L 2.265625 -16.46875 L 7.25 -17.109375 L 6.796875 -5 Z M 11.828125 -17.046875 "/></g></g></g><g fill="#ffdf2b" fill-opacity="1"><g transform="translate(37.490872, 78.090237)"><g><path d="M 7.796875 -3.828125 L 11.65625 -3.578125 L 11.5 -2.03125 L 9.96875 -0.15625 L 0.5 -0.015625 L -0.71875 -0.859375 L 1.578125 -11.140625 L 3.21875 -12.53125 L 12.421875 -12.34375 L 13.796875 -11.25 L 12.03125 -5.375 L 10.578125 -4.515625 L 4.65625 -4.6875 L 4.25 -3.25 L 7.25 -3.0625 Z M 8.203125 -6.859375 L 8.59375 -9.03125 L 5.53125 -9.15625 L 5.078125 -7.140625 Z M 8.203125 -6.859375 "/></g></g></g><g fill="#ffdf2b" fill-opacity="1"><g transform="translate(50.541856, 78.090237)"><g><path d="M 12.203125 -12.34375 L 12.984375 -10.890625 L 12.015625 -7.03125 L 11.140625 -5.984375 L 7.796875 -6.046875 L 8.078125 -8.59375 L 5.65625 -8.734375 L 3.65625 -0.046875 L -0.78125 -0.28125 L 1.875 -12.46875 L 4.546875 -12.453125 L 4.78125 -11.75 L 5.421875 -12.328125 Z M 12.203125 -12.34375 "/></g></g></g><g fill="#ffdf2b" fill-opacity="1"><g transform="translate(62.865409, 78.090237)"><g><path d="M 15.203125 -12.328125 L 15.96875 -11.421875 L 13.453125 -0.96875 L 12.40625 -0.015625 L 9.53125 -0.109375 L 10.984375 -7.546875 L 10 -7.75 L 7.796875 -0.875 L 4.984375 -1.34375 L 6.140625 -7.59375 L 5.1875 -7.53125 L 2.96875 -0.015625 L -0.984375 -0.0625 L 2.0625 -12.484375 L 4.71875 -12.46875 L 4.921875 -11.765625 L 5.734375 -12.34375 L 8.375 -12.34375 L 8.828125 -11.203125 L 10.0625 -12.296875 Z M 15.203125 -12.328125 "/></g></g></g><g fill="#ffdf2b" fill-opacity="1"><g transform="translate(78.055903, 78.090237)"><g><path d="M 7.796875 -3.828125 L 11.65625 -3.578125 L 11.5 -2.03125 L 9.96875 -0.15625 L 0.5 -0.015625 L -0.71875 -0.859375 L 1.578125 -11.140625 L 3.21875 -12.53125 L 12.421875 -12.34375 L 13.796875 -11.25 L 12.03125 -5.375 L 10.578125 -4.515625 L 4.65625 -4.6875 L 4.25 -3.25 L 7.25 -3.0625 Z M 8.203125 -6.859375 L 8.59375 -9.03125 L 5.53125 -9.15625 L 5.078125 -7.140625 Z M 8.203125 -6.859375 "/></g></g></g><g fill="#ffdf2b" fill-opacity="1"><g transform="translate(91.106887, 78.090237)"><g><path d="M 2.453125 -17.0625 L 8.1875 -17.0625 L 3.71875 -0.359375 L -0.78125 0 L 2.328125 -13.09375 L 1.578125 -13.46875 Z M 2.453125 -17.0625 "/></g></g></g><g fill="#ffdf2b" fill-opacity="1"><g transform="translate(97.739355, 78.090237)"><g><path d="M 12.359375 -12.484375 L 13.296875 -10.828125 L 10.640625 -0.046875 L 6.234375 -0.125 L 8 -8.453125 L 5.046875 -8.25 L 3.328125 -0.28125 L -1.453125 0.015625 L 2.40625 -17.09375 L 6.8125 -16.75 L 5.875 -12.125 Z M 12.359375 -12.484375 "/></g></g></g><g fill="#ffdf2b" fill-opacity="1"><g transform="translate(110.918712, 78.090237)"><g><path d="M 12.78125 -12.34375 L 13.578125 -10.953125 L 11.328125 -1.609375 L 10.140625 -0.078125 L 0.53125 -0.015625 L -0.71875 -0.765625 L 1.5625 -11.109375 L 2.75 -12.53125 Z M 8.59375 -8.96875 L 5.625 -9.09375 L 4.40625 -3.421875 L 7.203125 -3.1875 Z M 8.59375 -8.96875 "/></g></g></g><g fill="#ffffff" fill-opacity="1"><g transform="translate(20.989099, 243.259531)"><g><path d="M 4.40625 -3.0625 L 6.6875 -2.90625 L 6.28125 -0.921875 L 5.625 -0.03125 L 0.015625 0.015625 L -0.71875 -0.4375 L 1.21875 -9.125 L 1.78125 -9.9375 L 7.734375 -9.859375 L 8.328125 -9.203125 L 7.53125 -6.515625 L 5.1875 -6.515625 L 5.296875 -7.921875 L 3.5625 -8 L 2.265625 -1.84375 L 3.890625 -1.71875 Z M 4.40625 -3.0625 "/></g></g></g><g fill="#ffffff" fill-opacity="1"><g transform="translate(28.562165, 243.259531)"><g><path d="M 8.015625 -6.75 L 6.53125 0 L 4.828125 0.015625 L 4.671875 -0.421875 L 4.28125 0 L 0.375 -0.03125 L -0.40625 -0.71875 L 0.5625 -3.953125 L 1.40625 -4.453125 L 4.890625 -4.515625 L 5.125 -5.359375 L 3.390625 -5.484375 L 3.078125 -5.015625 L 0.828125 -5.171875 L 0.921875 -6.0625 L 1.8125 -7.15625 L 7.296875 -7.234375 Z M 4.390625 -1.9375 L 4.640625 -3.078125 L 2.78125 -3.0625 L 2.609375 -2.015625 Z M 4.390625 -1.9375 "/></g></g></g><g fill="#ffffff" fill-opacity="1"><g transform="translate(36.160061, 243.259531)"><g><path d="M -0.875 -0.03125 L 0.859375 -7.265625 L 3.5625 -7.265625 L 1.5625 -0.15625 Z M 2.9375 -7.515625 L 1.578125 -7.484375 L 1.0625 -7.90625 L 1.578125 -9.921875 L 3.921875 -9.921875 L 4.171875 -9.59375 L 3.5 -7.90625 Z M 2.9375 -7.515625 "/></g></g></g><g fill="#ffffff" fill-opacity="1"><g transform="translate(39.487245, 243.259531)"><g><path d="M 7.4375 -7.171875 L 7.890625 -6.359375 L 6.59375 -0.9375 L 5.890625 -0.046875 L 0.3125 -0.015625 L -0.40625 -0.453125 L 0.90625 -6.453125 L 1.609375 -7.28125 Z M 5 -5.203125 L 3.265625 -5.28125 L 2.5625 -1.984375 L 4.1875 -1.84375 Z M 5 -5.203125 "/></g></g></g><g fill="#ffffff" fill-opacity="1"><g transform="translate(46.985821, 243.259531)"><g/></g></g><g fill="#ffffff" fill-opacity="1"><g transform="translate(50.710279, 243.259531)"><g><path d="M 8.203125 -8.8125 L 6.34375 -0.03125 L 3.765625 0.03125 L 4.40625 -3.0625 L 2.40625 -2.9375 L 1.53125 -0.03125 L -0.875 0.015625 L 1.609375 -9.109375 L 2.234375 -9.6875 L 7.6875 -9.921875 Z M 4.828125 -4.953125 L 5.328125 -7.421875 L 3.671875 -7.296875 L 3.015625 -5.078125 Z M 4.828125 -4.953125 "/></g></g></g><g fill="#ffffff" fill-opacity="1"><g transform="translate(58.432324, 243.259531)"><g><path d="M 8.828125 -7.15625 L 9.28125 -6.640625 L 7.8125 -0.5625 L 7.203125 -0.015625 L 5.546875 -0.0625 L 6.390625 -4.390625 L 5.8125 -4.5 L 4.53125 -0.515625 L 2.890625 -0.78125 L 3.5625 -4.40625 L 3.015625 -4.375 L 1.734375 -0.015625 L -0.5625 -0.03125 L 1.203125 -7.25 L 2.75 -7.234375 L 2.859375 -6.828125 L 3.328125 -7.171875 L 4.875 -7.171875 L 5.140625 -6.515625 L 5.859375 -7.140625 Z M 8.828125 -7.15625 "/></g></g></g><g fill="#ffffff" fill-opacity="1"><g transform="translate(67.246879, 243.259531)"><g><path d="M 8.015625 -6.75 L 6.53125 0 L 4.828125 0.015625 L 4.671875 -0.421875 L 4.28125 0 L 0.375 -0.03125 L -0.40625 -0.71875 L 0.5625 -3.953125 L 1.40625 -4.453125 L 4.890625 -4.515625 L 5.125 -5.359375 L 3.390625 -5.484375 L 3.078125 -5.015625 L 0.828125 -5.171875 L 0.921875 -6.0625 L 1.8125 -7.15625 L 7.296875 -7.234375 Z M 4.390625 -1.9375 L 4.640625 -3.078125 L 2.78125 -3.0625 L 2.609375 -2.015625 Z M 4.390625 -1.9375 "/></g></g></g><g fill="#ffffff" fill-opacity="1"><g transform="translate(74.844773, 243.259531)"><g><path d="M 7.09375 -7.171875 L 7.546875 -6.328125 L 6.984375 -4.09375 L 6.46875 -3.484375 L 4.53125 -3.515625 L 4.703125 -5 L 3.296875 -5.0625 L 2.125 -0.03125 L -0.4375 -0.15625 L 1.09375 -7.234375 L 2.65625 -7.234375 L 2.78125 -6.8125 L 3.15625 -7.15625 Z M 7.09375 -7.171875 "/></g></g></g><g fill="#ffffff" fill-opacity="1"><g transform="translate(81.995733, 243.259531)"><g><path d="M 8.015625 -6.75 L 6.53125 0 L 4.828125 0.015625 L 4.671875 -0.421875 L 4.28125 0 L 0.375 -0.03125 L -0.40625 -0.71875 L 0.5625 -3.953125 L 1.40625 -4.453125 L 4.890625 -4.515625 L 5.125 -5.359375 L 3.390625 -5.484375 L 3.078125 -5.015625 L 0.828125 -5.171875 L 0.921875 -6.0625 L 1.8125 -7.15625 L 7.296875 -7.234375 Z M 4.390625 -1.9375 L 4.640625 -3.078125 L 2.78125 -3.0625 L 2.609375 -2.015625 Z M 4.390625 -1.9375 "/></g></g></g><g fill="#ffffff" fill-opacity="1"><g transform="translate(89.593626, 243.259531)"><g><path d="M 1.4375 -9.90625 L 4.765625 -9.90625 L 2.171875 -0.21875 L -0.4375 0 L 1.359375 -7.609375 L 0.921875 -7.828125 Z M 1.4375 -9.90625 "/></g></g></g></svg>